<?xml version="1.0" encoding="UTF-8"?>
<svg width="21px" height="6px" viewBox="0 0 21 6" version="1.1" xmlns="http://www.w3.org/2000/svg" xmlns:xlink="http://www.w3.org/1999/xlink">
    <!-- Generator: Sketch 64 (93537) - https://sketch.com -->
    <title>→ copy</title>
    <desc>Created with Sketch.</desc>
    <g id="Finalization" stroke="none" stroke-width="1" fill="none" fill-rule="evenodd">
        <g id="Homepage" transform="translate(-257.000000, -5511.000000)" fill="#7866ff" fill-rule="nonzero">
            <path d="M278,5514.00503 L275.079954,5517 L274.549479,5516.46231 C274.445654,5516.35846 274.403476,5516.25377 274.422943,5516.14824 C274.44241,5516.04271 274.499188,5515.94305 274.593279,5515.84925 L275.255156,5515.09548 C275.46605,5514.88777 275.66234,5514.71022 275.844032,5514.56281 C275.581227,5514.59632 275.307881,5514.62312 275.023986,5514.64322 C274.740091,5514.66332 274.45539,5514.67337 274.169873,5514.67337 L257,5514.67337 L257,5513.32663 L274.169873,5513.32663 C274.45539,5513.32663 274.740902,5513.33668 275.026419,5513.35678 C275.311937,5513.37688 275.586094,5513.40368 275.848899,5513.43719 C275.758053,5513.36683 275.663152,5513.28811 275.564195,5513.20101 C275.465237,5513.1139 275.362225,5513.01675 275.255156,5512.90955 L274.593279,5512.15075 C274.495944,5512.05695 274.438355,5511.95645 274.42051,5511.84925 C274.402665,5511.74204 274.445654,5511.63819 274.549479,5511.53769 L275.079954,5511 L278,5514.00503 Z" id="→-copy"></path>
        </g>
    </g>
</svg>