<?xml version="1.0" encoding="UTF-8"?>
<svg width="10px" height="71px" viewBox="0 0 10 71" version="1.1" xmlns="http://www.w3.org/2000/svg" xmlns:xlink="http://www.w3.org/1999/xlink">
    <!-- Generator: Sketch 64 (93537) - https://sketch.com -->
    <title>→ copy 5</title>
    <desc>Created with Sketch.</desc>
    <g id="Finalization" stroke="none" stroke-width="1" fill="none" fill-rule="evenodd">
        <g id="Homepage" transform="translate(-67.000000, -558.000000)" fill="#FFFFFF" fill-rule="nonzero">
            <path d="M107,593.437801 L102.713676,597.860759 L101.934994,597.066705 C101.782591,596.913335 101.720678,596.758731 101.749253,596.602888 C101.777829,596.447045 101.861173,596.299861 101.999289,596.161334 L102.970856,595.048173 C103.280425,594.741434 103.568558,594.479226 103.835264,594.26154 C103.449493,594.311014 103.04825,594.350592 102.631522,594.380277 C102.214794,594.409961 101.796881,594.424803 101.377772,594.424803 L37,594.424803 L37,592.435956 L101.377772,592.435956 C101.796881,592.435956 102.215984,592.450798 102.635094,592.480483 C103.054203,592.510167 103.456637,592.549746 103.842408,592.59922 C103.709055,592.495324 103.569751,592.379062 103.424492,592.250429 C103.279232,592.121797 103.128022,591.978324 102.970856,591.820007 L101.999289,590.699425 C101.856411,590.560898 101.771876,590.412478 101.745681,590.254161 C101.719487,590.095844 101.782591,589.942477 101.934994,589.794055 L102.713676,589 L107,593.437801 Z" id="→-copy-5" transform="translate(72.000000, 593.430380) rotate(90.000000) translate(-72.000000, -593.430380) "></path>
        </g>
    </g>
</svg>