<?xml version="1.0" encoding="UTF-8"?>
<svg width="19px" height="21px" viewBox="0 0 19 21" version="1.1" xmlns="http://www.w3.org/2000/svg" xmlns:xlink="http://www.w3.org/1999/xlink">
    <!-- Generator: Sketch 64 (93537) - https://sketch.com -->
    <title>download copy</title>
    <desc>Created with Sketch.</desc>
    <g id="Finalization" stroke="none" stroke-width="1" fill="none" fill-rule="evenodd">
        <g id="Homepage" transform="translate(-583.000000, -5696.000000)" fill="#2D299C" fill-rule="nonzero">
            <g id="download-copy" transform="translate(592.000000, 5706.500000) scale(-1, 1) rotate(90.000000) translate(-592.000000, -5706.500000) translate(582.000000, 5697.000000)">
                <path d="M19.3940678,0.754237288 C19.0762712,0.754237288 18.8220339,1.00847458 18.8220339,1.32627119 L18.8220339,6.52966102 C18.8220339,7.94491525 17.6694915,9.09322034 16.2584746,9.09322034 L3.70762712,9.09322034 C2.29237288,9.09322034 1.1440678,7.94067797 1.1440678,6.52966102 L1.1440678,1.24152542 C1.1440678,0.923728814 0.889830508,0.669491525 0.572033898,0.669491525 C0.254237288,0.669491525 -6.44817533e-13,0.923728814 -6.44817533e-13,1.24152542 L-6.44817533e-13,6.52966102 C-6.44817533e-13,8.57627119 1.66525424,10.2372881 3.70762712,10.2372881 L16.2584746,10.2372881 C18.3050847,10.2372881 19.9661017,8.5720339 19.9661017,6.52966102 L19.9661017,1.32627119 C19.9661017,1.01271186 19.7118644,0.754237288 19.3940678,0.754237288 Z" id="Path" transform="translate(9.983051, 5.453390) scale(-1, -1) translate(-9.983051, -5.453390) "></path>
                <path d="M9.58050847,18.753178 C9.69067797,18.8633475 9.83898305,18.9226695 9.98305085,18.9226695 C10.1271186,18.9226695 10.2754237,18.8675847 10.3855932,18.753178 L14.0211864,15.1175847 C14.2457627,14.8930085 14.2457627,14.532839 14.0211864,14.3082627 C13.7966102,14.0836864 13.4364407,14.0836864 13.2118644,14.3082627 L10.5550847,16.9692797 L10.5550847,5.36334746 C10.5550847,5.04555085 10.3008475,4.79131356 9.98305085,4.79131356 C9.66525424,4.79131356 9.41101695,5.04555085 9.41101695,5.36334746 L9.41101695,16.9692797 L6.75,14.3082627 C6.52542373,14.0836864 6.16525424,14.0836864 5.94067797,14.3082627 C5.71610169,14.532839 5.71610169,14.8930085 5.94067797,15.1175847 L9.58050847,18.753178 Z" id="Path"></path>
            </g>
        </g>
    </g>
</svg>