<?xml version="1.0" encoding="UTF-8"?>
<svg width="196px" height="70px" viewBox="0 0 196 70" version="1.1" xmlns="http://www.w3.org/2000/svg" xmlns:xlink="http://www.w3.org/1999/xlink">
    <!-- Generator: Sketch 64 (93537) - https://sketch.com -->
    <title>Logo-Negative</title>
    <desc>Created with Sketch.</desc>
    <defs>
        <polygon id="path-1" points="0.349175676 0.0610425532 14.9781081 0.0610425532 14.9781081 18.6361702 0.349175676 18.6361702"></polygon>
        <polygon id="path-3" points="0.362887805 0.15728 16.688278 0.15728 16.688278 20 0.362887805 20"></polygon>
    </defs>
    <g id="Logo-Negative" stroke="none" stroke-width="1" fill="none" fill-rule="evenodd">
        <g id="Group-37">
            <path d="M148.304151,53.1309237 C149.529649,52.311245 150.80168,51.9012048 152.086065,51.9012048 C153.276149,51.9012048 154.327047,52.311245 155.21405,53.0851406 L155.5056,53.3016064 L155.76256,53.0851406 L156.603031,52.3566265 L157,52.0606426 L156.603031,51.7759036 C155.365591,50.6261044 153.894663,50 152.086065,50 C150.684731,50 149.354637,50.3759036 148.093312,51.024498 C146.27236,51.9012048 144.778373,53.3811245 143.658294,55.4417671 C142.536979,57.411245 142,59.5172691 142,61.7028112 C142,63.4562249 142.374321,65.0044177 143.191319,66.2678715 C144.334871,68.1008032 145.96928,69 148.093312,69 C149.202685,69 150.136221,68.8068273 150.860155,68.3172691 C151.607149,67.8506024 152.459562,67.0763052 153.300033,65.9947791 C153.894663,65.2433735 154.397052,64.4012048 154.840965,63.5927711 L154.840965,68.4196787 L154.840965,68.8293173 L155.260995,68.8293173 L156.486493,68.8293173 L156.918465,68.8293173 L156.918465,68.4196787 L156.918465,58.2991968 L156.918465,57.7301205 L156.311069,57.9349398 L155.5056,58.2192771 L155.34253,58.2991968 L155.295997,58.435743 C154.397052,60.3253012 153.568111,61.9421687 152.657635,63.3879518 C151.735628,64.7538153 150.965574,65.7783133 150.252759,66.3248996 C149.576182,66.8598394 148.898781,67.1558233 148.093312,67.1558233 C146.903228,67.1558233 145.96928,66.575502 145.210344,65.5393574 C144.45182,64.537751 144.112914,63.2168675 144.112914,61.6004016 C144.112914,60.0409639 144.45182,58.5040161 145.175342,57.0240964 C145.922747,55.3277108 146.938231,54.053012 148.304151,53.1309237" id="Fill-1" fill="#000000"></path>
            <polygon id="Fill-3" fill="#000000" points="32.9569148 22.0395273 32.7720313 22.0395273 32.7720313 22.2359413 32.7720313 36.00489 23.3063202 21.1731866 23.1792637 21 23.0294022 21.1271394 22.7520769 21.3117359 22.3827171 21.5195599 22.221453 21.6352893 22.1290112 21.693154 22.1290112 21.7852486 22.1290112 38.9156479 14.9604985 38.9156479 14.9604985 32.2506112 20.8474507 32.2506112 20.9745072 32.2506112 21.009122 32.1466993 21.1129663 31.8810106 21.5515556 30.3101059 21.6325949 30.0676447 21.3556768 30.0676447 14.9604985 30.0676447 14.9604985 24.2343113 21.4016941 24.2343113 21.5747679 24.2343113 21.5861704 24.0725346 21.6325949 23.7722086 21.9559374 22.2705786 21.9905522 22.0395273 21.7596514 22.0395273 12.9634305 22.0395273 12.7899495 22.0395273 12.778547 22.0395273 12.5130314 22.0395273 0.623065646 22.0395273 0.449991855 22.0395273 0.415377097 22.1894866 0.369359831 22.50163 0.0460172667 24.00326 -2.27373675e-13 24.2343113 0.230900798 24.2343113 5.40234566 24.2343113 5.40234566 40.8215159 5.40234566 41.00652 5.61003421 41.00652 7.35298909 41.00652 7.56108487 41.00652 7.56108487 40.8215159 7.56108487 24.2343113 12.0630396 24.2343113 12.2014986 24.2343113 12.2475159 24.095762 12.3285551 23.806846 12.7093175 22.2819886 12.778547 22.0737571 12.778547 22.2359413 12.778547 30.0676447 11.8781561 30.0676447 11.7282945 30.0676447 11.6936798 30.194784 11.1972634 32.0313773 11.1394364 32.2506112 11.3817397 32.2506112 12.778547 32.2506112 12.778547 40.8215159 12.778547 41.00652 12.9634305 41.00652 21.8981104 41.00652 22.0711842 41.00652 22.0825867 40.8561532 22.1290112 40.602282 22.1290112 40.8215159 22.1290112 41.00652 22.3134875 41.00652 24.1606939 41.00652 24.3451702 41.00652 24.3451702 40.8215159 24.3451702 27.0757946 33.8573058 41.8382233 33.96115 42 34.0996091 41.9189079 34.9075582 41.4568052 35 41.3875306 35 41.2836186 35 22.2359413 35 22.0395273 34.803714 22.0395273"></polygon>
            <polygon id="Fill-5" fill="#000000" points="47.9052522 22.9506964 47.7188517 22.9506964 47.7188517 23.1478718 47.7188517 36.9701958 38.2571771 22.1390864 38.1754729 22 38.0243818 22.0576799 37.7217888 22.1853122 37.3025929 22.3939418 37.2676942 22.405805 37.0817042 22.5448914 37 22.6029804 37 22.695432 37 41.8054933 37 41.9912146 37.2098032 41.9912146 39.0602596 41.9912146 39.2696523 41.9912146 39.2696523 41.8054933 39.2696523 28.0064868 48.8364337 42.826142 48.929634 43 49.0922212 42.9071394 49.3833181 42.7218272 49.9072103 42.4432453 50 42.3737022 50 42.2693874 50 23.1478718 50 22.9506964 49.8021034 22.9506964"></polygon>
            <polygon id="Fill-7" fill="#000000" points="51.1726052 23 51 23 51 23.1967558 51 41.814674 51 42 51.1726052 42 52.8374217 42 53 42 53 41.814674 53 23.1967558 53 23 52.8374217 23"></polygon>
            <path d="M64.0489763,39.0159359 C65.2194787,37.7286764 66.0112197,36.0198993 65.9998136,34.2178185 C66.0112197,32.9772108 65.4983383,31.7366031 64.6621528,30.8588886 C63.5919455,29.9460821 62.1535962,29.6186937 60.7935165,29.3726364 C59.9349121,29.2091487 59.0542821,29.0217158 58.1732588,28.8582281 L58.0953826,28.8462555 L57.9502497,28.7996037 C57.8723736,28.7640988 57.8055102,28.752539 57.7272407,28.7174469 C57.247791,28.5304269 56.7683412,28.120469 56.8021662,27.5470234 C56.8021662,27.1610107 56.9024613,26.7981174 57.1140642,26.4938486 C57.3484794,26.0376517 57.7386468,25.7102634 58.1398271,25.4055817 C59.388599,24.4461234 60.9827005,24.2000661 62.510332,24.2000661 C63.0232134,24.2000661 63.5026632,24.2471307 63.9821129,24.3408472 L64.2161347,24.3759392 L64.3722804,24.3990587 L64.428131,24.2822228 L65.2753293,22.5854182 L65.409056,22.3278012 L65.1416025,22.2811494 L64.7065973,22.2105524 C64.0265574,22.0350921 63.3020731,22 62.5996143,22 C61.2725729,22 59.9238993,22.2105524 58.6527085,22.6906944 C57.5600823,23.1117992 56.5122938,23.7087771 55.7764034,24.6566757 C55.0515257,25.4992982 54.5500504,26.5991248 54.572076,27.7579886 C54.5500504,28.752539 55.0515257,29.6888779 55.8098351,30.2623235 C56.4564432,30.6954009 57.1923337,30.9059533 57.9168181,31.0929733 C58.6527085,31.291966 59.4330434,31.4092148 60.18034,31.5260507 C61.1502523,31.6197672 62.1535962,31.8187598 62.944944,32.4623896 C63.4578254,32.8603749 63.6588088,33.5857485 63.6588088,34.2644703 C63.6588088,35.0133763 63.4578254,35.7858145 63.1569402,36.4414169 C62.7219349,37.260507 62.0418951,37.9858806 61.2391412,38.45405 C59.7563475,39.425481 58.0061003,39.7999339 56.2778787,39.7999339 C55.9659807,39.7999339 55.6422833,39.7532821 55.3303853,39.7297498 C55.1183891,39.7062175 54.9288118,39.6946577 54.7172088,39.6595657 L54.572076,39.6244736 L54.3714858,39.5893816 L54.3490669,39.5893816 L54.1040323,39.5893816 L53.9923312,39.5893816 L53.9364806,39.7062175 L53.8361855,39.8936504 L53.122714,41.2981587 L53,41.4967385 L53.223009,41.5788952 L53.6690271,41.7192635 C54.5834821,41.8947238 55.486531,42 56.367161,42 C57.8389419,42 59.3441545,41.8010073 60.715247,41.251094 C61.9750317,40.7598051 63.1124957,39.9989266 64.0489763,39.0159359" id="Fill-9" fill="#000000"></path>
            <path d="M122.203251,2.8656473 C125.110009,1.69296636 128.314069,0.855045872 132.187458,0.855045872 C134.214029,0.855045872 136.22929,1.10907238 138.141547,1.51396534 C139.550088,1.84872579 140.935606,2.2540265 142.240739,2.80815494 C152.145369,6.84199796 159.164246,16.6324159 159.164246,28.0281346 C159.164246,38.22263 153.095438,46.3249745 144.908768,51.0405708 C144.782739,51.0642202 144.862719,51.3182467 144.908768,51.5380224 C144.954414,51.7455657 144.988749,51.9539246 144.908768,52 C146.236926,51.2835882 147.496414,50.4281346 148.641586,49.5033639 C155.248443,44.395107 160,37.0780836 160,28.0281346 C160,16.4583078 153.095438,6.54189602 143.156877,2.2540265 C141.794384,1.67584098 140.362818,1.1783894 138.920345,0.797553517 C136.756029,0.300101937 134.523448,0 132.187458,0 C118.687349,0 107.4893,9.36228338 105.004256,22.2381244 C104.912965,22.4917431 106.321103,22.0640163 106.286768,22.3298675 C106.771901,18.4513761 109.93395,10.516208 117.088955,5.45443425 C116.266532,6.08277268 116.701576,6.18715596 120.210206,4.83098879 C123.393665,4.83098879 124.950857,5.75575943 127.217773,7.14250765 C127.870542,7.7088685 128.626315,8.53007136 129.336443,9.48909276 C130.195221,10.6682977 131.099645,12.0432212 132.027093,13.5575943 C133.48128,16.0195719 134.889822,18.7702345 136.01197,21.1049949 C136.257162,21.6122324 136.491852,22.0428135 136.705133,22.5039755 L134.214029,22.5039755 L134.031044,22.5039755 L134.031044,22.7001019 L134.031044,30.5708461 L133.023212,30.5708461 L132.862847,30.5708461 L132.817202,30.7102956 L132.256128,32.6287462 L132.176147,32.8831804 L132.439113,32.8831804 L134.031044,32.8831804 L134.031044,41.4707441 L134.031044,41.6554536 L134.214029,41.6554536 L143.866601,41.6554536 L144.015655,41.6554536 L144.04999,41.5282365 L144.152995,41.1588175 L144.508059,39.6093782 L144.576729,39.3904179 L144.32467,39.3904179 L136.36663,39.3904179 L136.36663,32.8831804 L142.744453,32.8831804 L142.870483,32.8831804 L142.916128,32.7559633 L143.546276,30.8138634 L143.614946,30.5708461 L143.374197,30.5708461 L136.36663,30.5708461 L136.36663,24.8265036 L137.90201,24.8265036 C138.110443,25.1861366 138.213852,25.4907238 138.381891,25.7280326 C139.469704,27.230581 140.752217,28.54842 142.343744,29.5429154 C143.454581,30.3049949 144.748404,30.8485219 146.202591,31.2187564 C150.118394,31.5535168 151.996315,31.6574924 156.668296,31.2187564 C157.263704,31.2187564 156.336256,30.2246687 156.336256,30.1321101 C154.389665,30.54842 152.981123,30.3049949 151.149251,30.479103 C147.153064,30.3865443 144.954414,29.7965341 143.248571,28.7331295 C141.92001,27.8662589 140.935606,26.6874618 139.595734,25.1734964 C139.521005,25.0544343 139.426886,24.9361876 139.34933,24.8265036 L143.374197,24.8265036 L143.523251,24.8265036 L143.557586,24.6768603 L144.015655,22.7347604 L144.084325,22.5039755 L143.832266,22.5039755 L138.150029,22.5039755 C137.834148,21.7537207 137.52998,21.0462793 137.214098,20.2381244 C136.893369,19.487054 136.50397,18.5969419 136.01197,17.5449541 C134.843773,15.1991845 134.214029,13.9270133 133.515615,12.6788991 C132.862847,11.5465851 132.751359,11.3015291 131.388463,9.3598369 C131.342817,9.30234455 130.607241,8.39143731 130.607241,8.32130479 C128.184404,5.26768603 125.614128,3.98165138 122.044502,2.74087666" id="Fill-11" fill="#000000"></path>
            <path d="M83.7455868,41.998079 C85.5799463,41.998079 87.402429,41.518396 89.0512639,40.7109432 C89.1671657,40.6642958 89.2834769,40.6056771 89.3993786,40.5354997 C89.9448948,40.2312601 90.5022878,39.9154618 91.0363367,39.5526034 L91.3148284,39.3300998 L91.4659511,39.2248338 L91.3615167,39.0609489 L91.1407711,38.7686807 L90.4211976,37.8675205 L90.2815422,37.5868109 L90.1889846,37.399396 L90.0030504,37.5397508 L89.7126818,37.7506958 C88.7608954,38.359175 87.7276091,38.9205941 86.6246999,39.2950111 C85.8121593,39.5992508 84.9299958,39.7982243 84.0359554,39.7982243 C82.6426776,39.8217544 81.1916537,39.3300998 80.2513346,38.2303789 C79.2299252,37.1653338 78.8232453,35.6206056 78.8351222,34.1699977 C78.8351222,32.8122716 79.1369581,31.4669298 79.5780398,30.1913525 C80.0191216,28.9743941 80.6576049,27.8040829 81.4238667,26.7625679 C82.5267759,25.2533412 84.2915125,24.164766 86.1836181,24.1998547 C86.9036012,24.1998547 87.634642,24.352181 88.2731253,24.7150393 C88.9001412,25.0774849 89.3760345,25.6277582 89.7245587,26.2477961 L89.8523372,26.5053884 L89.9219602,26.6573018 L90.061206,26.6337717 L90.3630419,26.516947 L91.4659511,26.1540886 L91.83741,26.0137338 L92,25.9551151 L91.9418444,25.7796716 L91.8140658,25.3701659 C91.3148284,24.352181 90.5833781,23.4629922 89.6201243,22.8776302 C88.6449936,22.2456209 87.4953961,22 86.3576755,22 C84.848496,22 83.3511933,22.4681245 82.06235,23.2404886 C80.286146,24.375711 78.9629007,26.0954699 78.0107047,27.9444377 C77.1346844,29.7203384 76.6194747,31.670857 76.5314221,33.6634821 C76.4208445,32.6207286 75.9510945,31.6039821 75.2012145,30.8580377 C74.086838,29.9222016 72.5891258,29.5828733 71.1729134,29.3719283 C70.5344302,29.2551036 69.8844796,29.1382789 69.2111849,29.0210414 C68.967095,28.9743941 68.7000706,28.9273339 68.444923,28.8571565 L68.3753001,28.8455979 L68.2127101,28.7989506 C67.88753,28.6932717 67.5275385,28.5297997 67.2605141,28.283766 C67.0631126,28.0847924 66.9586782,27.8040829 66.9586782,27.5464906 C66.9586782,27.1605149 67.1446123,26.7976566 67.3420138,26.4934169 C67.5971614,26.0372639 67.9919644,25.7094942 68.3982347,25.4052546 C69.7218896,24.4458884 71.4051264,24.1998547 72.9958057,24.1998547 C73.4946335,24.1998547 74.0057478,24.2584735 74.4931083,24.3406223 L74.7371981,24.375711 L74.8993786,24.3988283 L74.9575342,24.2820036 L75.8167632,22.5618319 L75.9211976,22.3277697 L75.6889846,22.2811224 L75.236026,22.2105322 C74.5049852,22.0350887 73.7501907,22 72.9958057,22 C71.6258721,22 70.2440616,22.2105322 68.9441604,22.6906281 C67.8064398,23.1116924 66.7149979,23.708613 65.9372687,24.6564206 C65.1595396,25.4869906 64.6484254,26.598683 64.6603022,27.7574356 C64.6484254,28.7518904 65.1943511,29.6881394 65.9835475,30.2615299 C66.6453749,30.6945657 67.4231041,30.9050979 68.2008332,31.0921 C68.967095,31.2679563 69.7452337,31.408311 70.5344302,31.5251357 C71.5443723,31.6188432 72.5891258,31.8413468 73.402076,32.4613847 C73.9824036,32.8473603 74.1683378,33.5846357 74.1683378,34.2632923 C74.1683378,35.0121264 73.9824036,35.7844905 73.5876006,36.4400298 C73.1465189,37.2941299 72.4732241,37.9843452 71.6373394,38.4524697 C70.0818811,39.4238073 68.2589888,39.7982243 66.4713176,39.7982243 C65.9606129,39.7982243 65.4728428,39.7396055 64.9969496,39.6578695 L64.7413925,39.6227808 L64.5210563,39.5876921 L64.4977122,39.5876921 L64.2421551,39.5876921 L64.1495975,39.5876921 L64.0914419,39.6929582 L63.9288519,39.8919318 L63.3833357,40.874828 L63.1392459,41.2963052 L63,41.4948659 L63.2440898,41.5770147 L63.7547945,41.7173695 C64.706581,41.8696957 65.6354328,41.998079 66.5642847,41.998079 C68.119743,41.998079 69.6637339,41.7991055 71.1147578,41.249245 C72.3921339,40.7580033 73.5761333,40.0207279 74.5279198,39.0143016 C75.0967801,38.440911 75.6074848,37.7506958 75.956009,37.0134204 C76.0022878,36.9312716 76.0370993,36.8495355 76.0489761,36.7558281 C76.3172292,36.1622099 76.469171,35.529375 76.5289648,34.881679 C76.5600904,35.4975888 76.6383138,36.1130858 76.7685496,36.7091808 C77.1866968,37.8208732 77.6859342,38.9090355 78.4751306,39.7396055 C79.7869086,41.225715 81.7605141,42.0451392 83.7455868,41.998079" id="Fill-13" fill="#000000"></path>
            <path d="M111.924376,39.8861495 C112.359358,39.1020245 112.703063,38.261375 113.092406,37.4315494 C113.126736,37.3409501 113.183683,37.2499499 113.229322,37.1360994 C113.286673,37.0338745 113.355333,36.9432752 113.378759,36.8182 L115.153016,32.7953498 L115.221676,32.6931249 L115.221676,32.6702746 L115.244697,32.6590499 L116.641728,29.5001002 L116.641728,41.4543997 L116.641728,41.6364001 L116.824283,41.6364001 L118.816233,41.6364001 L119,41.6364001 L119,41.4543997 L119,22.3407496 L119,22 L118.713647,22.1703748 L116.938986,23.1705753 L116.904656,23.1930247 L116.870326,23.2611746 L110.127502,38.1932251 C109.863766,38.7612748 109.623456,39.4091 109.051154,39.7157747 C108.971185,39.7498497 108.902121,39.7610744 108.81044,39.7610744 C108.466735,39.7610744 108.134744,39.4884746 108.077796,39.1360994 C107.974806,38.4770495 108.009136,37.7955502 108.009136,37.11365 L108.009136,22.9997996 L108.009136,22.8069753 L107.802752,22.8069753 L105.845132,22.8069753 L105.650864,22.8069753 L105.650864,22.9997996 L105.650864,30.7384245 L104.333802,30.7384245 L104.333802,22.9997996 L104.333802,22.8069753 L104.139535,22.8069753 L102.204936,22.8069753 L101.998955,22.8069753 L101.998955,22.9997996 L101.998955,30.7384245 L94.6139576,30.7384245 L94.6139576,22.9997996 L94.6139576,22.8069753 L94.4192861,22.8069753 L92.4277398,22.8069753 L92.2439731,22.8069753 L92.2439731,22.9997996 L92.2439731,30.7384245 L90.8816763,30.7384245 L90.7330474,30.7384245 L90.6987173,30.8751253 L90.6187485,31.1589497 L90.0807766,32.7612748 L90,33.0114251 L90.2520229,33.0114251 L92.2439731,33.0114251 L92.2439731,41.4543997 L92.2439731,41.6364001 L92.4277398,41.6364001 L94.4192861,41.6364001 L94.6139576,41.6364001 L94.6139576,41.4543997 L94.6139576,33.0114251 L101.998955,33.0114251 L101.998955,41.4543997 L101.998955,41.6364001 L102.204936,41.6364001 L104.139535,41.6364001 L104.333802,41.6364001 L104.333802,41.4543997 L104.333802,33.0114251 L105.650864,33.0114251 L105.650864,36.4546001 C105.673482,37.3180998 105.616534,38.1932251 105.753854,39.0226498 C105.776472,39.5341752 105.937217,40.0452997 106.177527,40.4770495 C106.406125,40.9773502 106.841107,41.3633995 107.29911,41.6247745 C107.779731,41.8977751 108.329819,42 108.8791,42 C109.692116,42 110.52775,41.6816997 111.089147,41.0907998 C111.432043,40.7500501 111.695779,40.3066747 111.924376,39.8861495" id="Fill-15" fill="#000000"></path>
            <polygon id="Fill-17" fill="#000000" points="125.394419 23 125.206857 23 123.211577 23 123 23 123 23.194571 123 41.8163509 123 42 123.211577 42 131.942945 42 132.060947 42 132.119742 41.8964445 132.225323 41.6331062 132.870818 40.0162657 133 39.7525229 132.706443 39.7525229 125.394419 39.7525229 125.394419 23.194571"></polygon>
            <path d="M162.99553,67.113714 C161.932026,67.113714 161.072443,66.6536047 160.337368,65.7796404 C159.545227,64.848061 159.183277,63.5253481 159.183277,61.892244 C159.183277,60.1325489 159.545227,58.4187025 160.337368,56.7511104 C161.072443,55.2214701 162.01144,53.9563723 163.278467,52.9903049 C163.900607,52.5415563 164.466479,52.1966772 164.986458,52.0011104 C165.167234,51.9207739 165.438996,51.8286709 165.676439,51.7479286 L165.585852,51.9552618 L165.133314,53.0937687 L164.850777,53.8297813 L165.619772,53.6228538 C166.027216,53.5421116 166.411913,53.4504143 166.649356,53.4504143 C167.644621,53.4504143 168.380095,53.8066541 168.957141,54.4509695 C169.601628,55.3018066 169.907311,56.3372555 169.907311,57.6368412 C169.907311,58.809836 169.658295,60.0518066 169.206156,61.3976467 C168.583617,63.0652387 167.803049,64.3879517 166.773864,65.3426582 C165.585852,66.4811651 164.319224,67.113714 162.99553,67.113714 M166.909546,51.5410011 C166.728371,51.5410011 166.524848,51.5641283 166.377993,51.5641283 C166.62661,51.5410011 166.909546,51.4606646 167.226402,51.4144102 L167.429924,51.4144102 L167.509338,51.2419706 L167.882462,50.6094217 L168.300681,50 L167.565606,50 L157.961743,50 L157.65606,50 L157.543125,50.287264 L157.203921,51.3685615 L157,51.9207739 L157.577046,51.9207739 L161.740077,51.9207739 C161.117538,52.4149654 160.609131,52.8750747 160.201288,53.3006962 C159.545227,54.0022209 159.013675,54.7958486 158.516042,55.7619159 C157.577046,57.6368412 157.124508,59.6724396 157.124508,61.765653 C157.124508,62.8124626 157.260189,63.7785299 157.543125,64.6983429 C157.792141,65.5609464 158.199186,66.3663407 158.730739,66.9757624 C159.88483,68.3216025 161.275966,69 162.96161,69 C164.466479,69 165.925455,68.5398907 167.180909,67.619672 C168.142652,66.9067865 168.957141,66.0210558 169.658295,65.0205006 C171.207859,62.6741052 172,60.2705006 172,57.6368412 C172,55.6698129 171.37786,54.0829632 170.269261,52.8750747 C169.40928,52.0011104 168.266761,51.5410011 166.909546,51.5410011" id="Fill-19" fill="#000000"></path>
            <polygon id="Fill-21" fill="#000000" points="181.799843 67.6519837 182 67.0544734 181.454867 67.0544734 174.947017 67.0544734 174.947017 50.3982024 174.947017 50 174.546311 50 173.411695 50 173 50 173 50.3982024 173 68.578228 173 69 173.411695 69 181.032182 69 181.321036 69 181.410518 68.7188187"></polygon>
            <g id="Group-25" transform="translate(181.000000, 50.000000)">
                <mask id="mask-2" fill="white">
                    <use xlink:href="#path-1"></use>
                </mask>
                <g id="Clip-24"></g>
                <polygon id="Fill-23" fill="#000000" mask="url(#mask-2)" points="14.4037703 16.7341489 3.93458108 16.7341489 13.7713378 0.668234043 14.1621486 0.0610425532 13.4498514 0.0610425532 2.72809459 0.0610425532 2.41755405 0.0610425532 2.30282432 0.347255319 1.98052703 1.42459574 1.80863514 1.97478723 2.38309459 1.97478723 10.6452568 1.97478723 0.716878378 17.9832979 0.349175676 18.6361702 1.09633784 18.6361702 13.9440405 18.6361702 14.2197162 18.6361702 14.3575541 18.3612766 14.7941757 17.3182979 14.9782297 16.7341489"></polygon>
            </g>
            <path d="M124.374088,58.497419 L124.202408,58.5798137 L124.111114,58.6150074 L124.087685,58.6853948 L124.042442,58.8145765 C123.320981,60.5514898 122.462177,62.2648027 121.476934,63.8965489 C120.83586,64.9879681 120.12571,66.0557868 119.175612,66.8776636 C118.626235,67.3703756 117.904371,67.6755258 117.160289,67.6755258 C116.668274,67.6755258 116.152425,67.534751 115.717367,67.288395 C115.247974,66.9712375 114.846848,66.5605061 114.492177,66.0909806 C113.713355,64.9527744 113.449977,63.5205972 113.449977,62.1592215 C113.449977,60.7862526 113.770716,59.4480633 114.229203,58.1690823 L114.24011,58.1218813 C114.263539,57.9811065 114.343118,57.8519248 114.412194,57.71115 L114.457841,57.6523558 L114.457841,57.6291693 L114.457841,57.6171621 L114.457841,57.6055688 L114.492177,57.5703751 L114.503487,57.5231741 C115.133251,55.9506361 116.152425,54.5420595 117.537985,53.5914151 C118.557563,52.8171534 119.827997,52.3476278 121.121859,52.3476278 C122.187084,52.3240273 123.22888,52.7815456 124.019013,53.5094345 L124.14545,53.6150156 L124.27108,53.5094345 L125.747933,52.1832525 L125.908707,52.0540708 L125.747933,51.9012887 C125.118574,51.3029955 124.408424,50.8218768 123.629602,50.4815328 C122.851184,50.1527821 121.992379,50 121.121859,50 C119.724989,50 118.328118,50.3875449 117.114238,51.0682328 C115.133251,52.0304703 113.633372,53.779391 112.614602,55.7158734 C112.580266,55.7982681 112.545929,55.8566482 112.511593,55.9270357 C112.431207,56.0678105 112.339509,56.1969922 112.293863,56.337767 C111.400722,58.1690823 111,60.2227391 111,62.2648027 C111,63.9433359 111.342956,65.6450555 112.213476,67.0768186 C112.339509,67.2647945 112.453828,67.440763 112.580266,67.6167316 C113.599036,69.1424827 115.385318,70.0227396 117.160289,69.9995532 C118.168152,69.9995532 119.209948,69.8587783 119.98877,69.2248774 C120.973204,68.6261702 121.740312,67.7227268 122.450462,66.7952689 C122.873805,66.2201622 123.263216,65.5862613 123.629602,64.9527744 L123.629602,69.6120082 L123.629602,69.8235846 L123.812997,69.8235846 L125.794388,69.8235846 L126,69.8235846 L126,69.6120082 L126,58.1690823 L126,57.8871186 L125.747933,57.9811065 L124.374088,58.497419 Z" id="Fill-26" fill="#000000"></path>
            <g id="Group-30" transform="translate(60.000000, 50.000000)">
                <mask id="mask-4" fill="white">
                    <use xlink:href="#path-3"></use>
                </mask>
                <g id="Clip-29"></g>
                <path d="M16.5120585,1.12128 L16.5120585,1.06448 L16.429961,0.80368 L16.3826927,0.66768 L16.2301073,0.66768 L14.1731073,0.66768 L13.9147902,0.66768 L13.9732537,0.89448 L14.0673756,1.32528 C14.1146439,1.73328 14.1498878,2.11888 14.1498878,2.50448 C14.1498878,3.32088 14.0321317,4.13728 13.7265463,4.88568 C13.3504732,6.09888 12.7745463,7.21008 12.1749854,8.28728 L8.23761951,15.40768 L2.74869268,0.35008 L2.67820488,0.15728 L2.51400976,0.21408 L0.539107317,0.83768 L0.362887805,0.89448 L0.43337561,1.06448 L7.37974146,19.79568 L7.46183902,20.00008 L7.63847317,19.90928 L8.0614,19.70528 L8.39061951,19.59168 L8.48474146,19.54648 L8.56683902,19.51248 L8.62571707,19.47848 L8.64893659,19.44448 L14.278839,9.51168 C15.4306927,7.52728 16.429961,5.42968 16.688278,3.15088 L16.688278,1.96008 L16.6530341,1.90368 C16.5945707,1.65408 16.5473024,1.38208 16.5120585,1.12128" id="Fill-28" fill="#000000" mask="url(#mask-4)"></path>
            </g>
            <polygon id="Fill-31" fill="#000000" points="78.1507738 50 78 50 78 50.1825454 78 68.8061963 78 69 78.1507738 69 79.8302546 69 80 69 80 68.8061963 80 50.1825454 80 50 79.8302546 50"></polygon>
            <path d="M105.859432,61.3159441 C105.354837,62.5869839 104.724496,63.8584204 103.739159,64.8481092 C103.647378,64.9381891 103.544275,65.0393802 103.429448,65.106841 C102.432386,66.0743074 101.148658,66.7941531 99.7391861,66.783042 C98.7190776,66.7941531 97.7907506,66.2766896 97.1373637,65.5342246 C96.2890928,64.5330278 96.0371991,63.160797 96.0371991,61.8671381 C96.0371991,60.1576035 96.4265628,58.4476721 97.2174197,56.9179006 C97.3666152,56.5579777 97.5728202,56.2317852 97.7677042,55.9167038 C98.3980447,54.9270151 99.2002227,54.0155014 100.140275,53.3071636 C100.678834,52.9472407 101.229119,52.6095402 101.813366,52.3396972 C101.916469,52.3170781 102.019976,52.2944589 102.111353,52.2496173 L101.400956,53.9143103 L101.251761,54.2405028 L101.618482,54.1730421 L102.398018,54.0043902 L102.524167,53.9595487 C102.856521,53.8805799 103.154912,53.7908968 103.486862,53.7908968 C104.28904,53.7793888 105.091622,54.1393117 105.572767,54.7579664 C106.294889,55.5567809 106.58115,56.6480576 106.58115,57.694096 C106.58115,58.9314053 106.260521,60.1576035 105.859432,61.3159441 M104.438235,51.6198514 L104.460877,51.5635019 L105.309148,50.3150813 L105.469664,50.0337304 L105.148632,50.0337304 L94.3637038,50.0337304 L94.2767742,50.0337304 L94.2836477,50 L94.0313497,50 L81.722122,50 L81.5616055,50 L81.538559,50.1349215 L81.0230464,52.0246159 L81,52.2496173 L81.2292515,52.2496173 L86.9027203,52.2496173 L86.9027203,68.4251158 L86.9027203,68.6278948 L87.0971999,68.6278948 L89.0800029,68.6278948 L89.2866123,68.6278948 L89.2866123,68.4251158 L89.2866123,52.2496173 L93.5728468,52.2496173 L93.7333633,52.2496173 L93.7677308,52.1035846 L94.1688198,50.4996063 L94.1688198,52.1035846 L94.1688198,52.2944589 L94.3637038,52.2944589 L97.9282206,52.2944589 C97.5271316,52.6321594 97.1373637,52.9920823 96.7706422,53.3631164 C96.0598413,54.0607398 95.5099612,54.9043959 95.0284118,55.7706712 L95.0170907,55.8044016 C94.9940442,55.8718623 94.9596767,55.939323 94.9366303,55.9952758 C94.8909417,56.0405141 94.8678953,56.1190861 94.8222067,56.1865468 C93.9739358,57.9302086 93.6072143,59.8762525 93.6072143,61.7885661 C93.6072143,62.7671437 93.7103168,63.7346101 94.0200287,64.6568381 C94.2606012,65.5342246 94.6960578,66.3104199 95.2689843,67.0080434 C96.3695531,68.2675751 98.0200021,69.0326593 99.6930932,68.9989289 C101.251761,69.0215481 102.799107,68.5378149 104.059788,67.6489204 C105.05685,66.9179634 105.939489,66.0294658 106.638564,65.0393802 C108.128497,62.890954 109.011135,60.3262554 109,57.7278263 C109.011135,56.0067838 108.506943,54.1956613 107.223216,52.9472407 C106.501094,52.1932677 105.492711,51.7547729 104.438235,51.6198514" id="Fill-33" fill="#000000"></path>
            <path d="M138.123776,51.1267945 L138.000849,51.21795 L137.967359,51.2408393 L137.944901,51.2974601 L131.411608,66.1867282 C131.165752,66.698725 130.942355,67.2677442 130.49556,67.6323662 C130.373026,67.7118763 130.250098,67.7572533 130.116139,67.7572533 C129.981785,67.7572533 129.881315,67.7118763 129.758388,67.6548539 L129.669344,67.609477 C129.568874,67.5636984 129.490468,67.4388114 129.445946,67.3247666 L129.412456,67.1769903 C129.300167,66.5051702 129.300167,65.8221062 129.300167,65.1506877 L129.300167,51.0131513 L129.300167,50.8195964 L129.110653,50.8195964 L127.20094,50.8195964 L127,50.8195964 L127,51.0131513 L127,64.4792691 C127.03349,65.3442425 126.977542,66.2321052 127.111502,67.0517016 C127.16745,67.5753438 127.301409,68.0648529 127.524807,68.5202289 C127.737172,68.9980926 128.128019,69.3964461 128.574814,69.635378 C129.077163,69.8518221 129.602364,70 130.116139,70 C130.920291,70 131.735475,69.7040458 132.327262,69.1121373 C132.696045,68.7704046 132.908016,68.3150286 133.175936,67.8825419 C133.20982,67.8030318 133.254342,67.7231202 133.265374,67.6548539 C133.310289,67.5753438 133.343779,67.4954322 133.387907,67.4271659 C133.812638,66.5850818 134.181421,65.708463 134.560843,64.8434896 L137.721503,57.5241442 L137.721503,69.4647124 L137.721503,69.6699127 L137.911411,69.6699127 L139.810092,69.6699127 L140,69.6699127 L140,69.4647124 L140,50.3529766 L140,50 L139.709623,50.1819094 L138.123776,51.1267945 Z" id="Fill-35" fill="#000000"></path>
        </g>
    </g>
</svg>